<svg width="55" height="24" viewBox="0 0 55 24" fill="none" xmlns="http://www.w3.org/2000/svg">
<g filter="url(#filter0_d)">
<path fill-rule="evenodd" clip-rule="evenodd" d="M14.3163 14.2466H9.45836C9.34689 14.2466 9.25652 14.3372 9.25652 14.449V15.2506C9.25496 15.3623 9.34402 15.4543 9.45548 15.4558H9.45836H15.3189C15.4299 15.4558 15.52 15.3656 15.52 15.2542V15.2534V12.4186C15.5204 12.3073 15.4307 12.2167 15.3196 12.2163H15.3189H14.5181C14.4066 12.2163 14.3163 12.3068 14.3163 12.4186V14.2466Z" fill="#6D7D8F"/>
<path fill-rule="evenodd" clip-rule="evenodd" d="M5.20299 5.17181H10.5745C10.6855 5.17225 10.7758 5.08229 10.7763 4.97087V4.97022V4.19951C10.775 4.08873 10.6849 3.99964 10.5745 4H4.20182C4.09128 3.99964 4.00115 4.08873 4 4.19951V6.95294C4 7.06472 4.09035 7.15539 4.20182 7.15539H5.00118C5.11264 7.15539 5.20299 7.06472 5.20299 6.95294V5.17181Z" fill="#6D7D8F"/>
<path fill-rule="evenodd" clip-rule="evenodd" d="M12.4906 4H15.3182C15.4292 4 15.5193 4.09032 15.5193 4.20167V6.91693C15.5193 7.02835 15.4292 7.11859 15.3182 7.11859H14.5181C14.4071 7.11902 14.3167 7.02907 14.3163 6.91772V6.91693V6.08081L5.7912 14.2496H7.54506C7.65653 14.2496 7.74688 14.3402 7.74688 14.452V15.2536C7.74688 15.3653 7.65653 15.456 7.54506 15.456H4.20182C4.09035 15.456 4 15.3653 4 15.2536V14.2532L13.4487 5.2043H12.4906C12.3792 5.2043 12.2888 5.11362 12.2888 5.00191V4.19951C12.29 4.08873 12.3801 3.99964 12.4906 4Z" fill="#6D7D8F"/>
<path d="M30.78 13.1C30.2467 13.1 29.75 13.0033 29.29 12.81C28.8367 12.61 28.4433 12.34 28.11 12C27.7767 11.66 27.5133 11.2633 27.32 10.81C27.1267 10.3567 27.03 9.87 27.03 9.35C27.03 8.82333 27.1267 8.33333 27.32 7.88C27.52 7.42 27.7867 7.02333 28.12 6.69C28.46 6.35 28.8567 6.08333 29.31 5.89C29.77 5.69667 30.26 5.6 30.78 5.6C31.12 5.6 31.45 5.64667 31.77 5.74C32.09 5.82667 32.3867 5.95 32.66 6.11C32.9333 6.27 33.1833 6.46333 33.41 6.69C33.6433 6.91667 33.84 7.16667 34 7.44L33.28 7.88C33.0267 7.43333 32.6833 7.07333 32.25 6.8C31.8233 6.52667 31.3333 6.39 30.78 6.39C30.3667 6.39 29.9833 6.47 29.63 6.63C29.2767 6.78333 28.97 6.99333 28.71 7.26C28.45 7.52667 28.2433 7.84 28.09 8.2C27.9433 8.56 27.87 8.94333 27.87 9.35C27.87 9.75667 27.9433 10.14 28.09 10.5C28.2367 10.8533 28.44 11.1633 28.7 11.43C28.96 11.6967 29.2667 11.9067 29.62 12.06C29.9733 12.2133 30.3567 12.29 30.77 12.29C31.3767 12.29 31.9 12.1433 32.34 11.85C32.7867 11.5567 33.1267 11.1733 33.36 10.7L34.1 11.09C33.94 11.39 33.7467 11.6633 33.52 11.91C33.2933 12.1567 33.0367 12.37 32.75 12.55C32.47 12.7233 32.1633 12.86 31.83 12.96C31.4967 13.0533 31.1467 13.1 30.78 13.1ZM35.2941 5.12H36.1041V8.47C36.2974 8.17 36.5541 7.93333 36.8741 7.76C37.1941 7.58 37.5607 7.49 37.9741 7.49C38.3274 7.49 38.6441 7.54667 38.9241 7.66C39.2107 7.76667 39.4541 7.92667 39.6541 8.14C39.8541 8.34667 40.0074 8.6 40.1141 8.9C40.2207 9.2 40.2741 9.54 40.2741 9.92V13H39.4341V9.96C39.4341 9.43333 39.2941 9.01333 39.0141 8.7C38.7407 8.38667 38.3374 8.23 37.8041 8.23C37.5641 8.23 37.3407 8.27333 37.1341 8.36C36.9341 8.44667 36.7574 8.57 36.6041 8.73C36.4507 8.88333 36.3307 9.07 36.2441 9.29C36.1574 9.50333 36.1141 9.74 36.1141 10V13H35.2941V5.12ZM43.3303 13.11C43.0103 13.11 42.7303 13.07 42.4903 12.99C42.2503 12.9033 42.0503 12.7867 41.8903 12.64C41.7303 12.4933 41.6103 12.3267 41.5303 12.14C41.4503 11.9467 41.4103 11.74 41.4103 11.52C41.4103 10.96 41.627 10.53 42.0603 10.23C42.5003 9.92333 43.1003 9.77 43.8603 9.77H45.5703V9.56C45.5703 9.14667 45.437 8.81667 45.1703 8.57C44.9103 8.31667 44.517 8.19 43.9903 8.19C43.5836 8.19 43.2403 8.27 42.9603 8.43C42.687 8.59 42.457 8.81333 42.2703 9.1L41.5603 8.65C41.8336 8.29667 42.167 8.01667 42.5603 7.81C42.9536 7.59667 43.4336 7.49 44.0003 7.49C44.387 7.49 44.727 7.54 45.0203 7.64C45.3136 7.74 45.5603 7.88333 45.7603 8.07C45.9603 8.25 46.1103 8.46667 46.2103 8.72C46.317 8.97333 46.3703 9.25333 46.3703 9.56V13H45.5703V12.05C45.3303 12.3833 45.0136 12.6433 44.6203 12.83C44.227 13.0167 43.797 13.11 43.3303 13.11ZM43.4803 12.39C43.6803 12.39 43.8803 12.3633 44.0803 12.31C44.287 12.2567 44.4803 12.18 44.6603 12.08C44.847 11.98 45.017 11.8533 45.1703 11.7C45.3303 11.5467 45.4636 11.37 45.5703 11.17V10.43H43.9003C43.3336 10.43 42.917 10.5167 42.6503 10.69C42.3836 10.8633 42.2503 11.12 42.2503 11.46C42.2503 11.7267 42.347 11.95 42.5403 12.13C42.7403 12.3033 43.0536 12.39 43.4803 12.39ZM47.2062 7.6H48.2562V6.41L49.0662 5.89V7.6H50.6462V8.33H49.0662V11.35C49.0662 11.6967 49.1362 11.9433 49.2762 12.09C49.4228 12.2367 49.6128 12.31 49.8462 12.31C50.0728 12.31 50.2795 12.2233 50.4662 12.05L50.8962 12.7C50.7428 12.82 50.5762 12.9133 50.3962 12.98C50.2162 13.0467 50.0128 13.08 49.7862 13.08C49.2862 13.08 48.9062 12.9467 48.6462 12.68C48.3862 12.4067 48.2562 11.97 48.2562 11.37V8.33H47.2062V7.6Z" fill="#6D7D8F"/>
<rect x="21.7067" y="2" width="0.426667" height="16" fill="#6D7D8F"/>
</g>
<defs>
<filter id="filter0_d" x="0" y="0" width="54.8962" height="24" filterUnits="userSpaceOnUse" color-interpolation-filters="sRGB">
<feFlood flood-opacity="0" result="BackgroundImageFix"/>
<feColorMatrix in="SourceAlpha" type="matrix" values="0 0 0 0 0 0 0 0 0 0 0 0 0 0 0 0 0 0 127 0" result="hardAlpha"/>
<feOffset dy="2"/>
<feGaussianBlur stdDeviation="2"/>
<feComposite in2="hardAlpha" operator="out"/>
<feColorMatrix type="matrix" values="0 0 0 0 0 0 0 0 0 0 0 0 0 0 0 0 0 0 0.2 0"/>
<feBlend mode="normal" in2="BackgroundImageFix" result="effect1_dropShadow"/>
<feBlend mode="normal" in="SourceGraphic" in2="effect1_dropShadow" result="shape"/>
</filter>
</defs>
</svg>
